<?xml version="1.0" encoding="UTF-8" standalone="no"?>

<svg xmlns="http://www.w3.org/2000/svg" xmlns:xlink="http://www.w3.org/1999/xlink" viewBox="0 0 48 48" fill="#fff">
<!-- <defs id="0">
  <linearGradient id="8">
   <stop id="E" stop-color="#fff" stop-opacity="0.8"/>
   <stop id="F" offset="1" stop-color="#fff" stop-opacity="0"/>
  </linearGradient>
  <linearGradient id="9">
   <stop id="G" stop-color="#2e3436"/>
   <stop id="H" offset="1" stop-color="#2e3436" stop-opacity="0"/>
  </linearGradient>
  <linearGradient id="A">
   <stop id="I" stop-color="#eeeeec"/>
   <stop id="J" offset="1" stop-color="#d3d7cf"/>
  </linearGradient>
  <radialGradient cx="25.978" cy="44.784" r="25.648" id="B" xlink:href="#9" gradientUnits="userSpaceOnUse" gradientTransform="matrix(1,0,0,0.1189711,0,39.455735)"/>
  <linearGradient y1="5.656" x2="0" y2="42.34" id="C" xlink:href="#8" gradientUnits="userSpaceOnUse"/>
  <radialGradient cx="14.811" cy="12.225" r="21.815" id="D" xlink:href="#A" gradientUnits="userSpaceOnUse" gradientTransform="matrix(0.00205886,0.8920877,-2.1481498,0.004958,41.040825,-0.9947773)"/>
 </defs>

 
 <path d="m 51.625748,44.783699 a 25.647936,3.051362 0 1 1 -51.29587205,0 25.647936,3.051362 0 1 1 51.29587205,0 z" transform="matrix(0.9357478,0,0,0.8804876,-0.3086803,2.4923358)" id="1" opacity="0.8" fill="url(#B)"/>
 <rect width="42.63" height="37.63" rx="3.043" x="2.685" y="3.889" id="2" fill="url(#D)" stroke="#555753"/>
 <path d="m 5.71875,6.15625 c -1.1645251,0 -2.0625,0.8979751 -2.0625,2.0625 l 0,31.5625 c 0,1.164526 0.897975,2.0625 2.0625,2.0625 l 36.5625,0 c 1.164526,0 2.0625,-0.897974 2.0625,-2.0625 l 0,-31.5625 c 0,-1.1645253 -0.897974,-2.0625 -2.0625,-2.0625 l -36.5625,0 z" transform="translate(2.4683952e-7,-1.2954848)" id="3" opacity="0.8" fill="none" stroke="url(#C)"/>
 <path d="m -73.375,-1.1875 c -0.483779,0 -0.84375,0.3599707 -0.84375,0.84375 l 0,38.25 c 0,0.483779 0.359972,0.84375 0.84375,0.84375 l 38.21875,0 c 0.48378,0 0.84375,-0.35997 0.84375,-0.84375 l 0,-38.25 c 0,-0.4837793 -0.359971,-0.84375 -0.84375,-0.84375 l -38.21875,0 z" transform="translate(-78.769885,-4.7231289)" id="4" fill="none" stroke="#fff" stroke-linejoin="round" stroke-linecap="round"/>
 <path d="M 9.0625,6.3125 A 0.87737279,0.87737279 0 0 0 8.96875,6.34375 C 8.1660594,6.5295973 7.58441,7.2386287 7.59375,8.0625 l 0,10.28125 a 0.87737279,0.87737279 0 0 0 0,0.03125 c 0.0135,0.672115 0.3946425,1.315476 1.0625,1.59375 0.6678593,0.278276 1.398327,0.108851 1.90625,-0.375 a 0.87737279,0.87737279 0 0 0 0.03125,0 L 12.5,17.6875 17.53125,22.71875 12.5,27.75 10.5625,25.8125 a 0.87737279,0.87737279 0 0 0 -0.03125,0 C 10.023326,25.328648 9.2928573,25.159226 8.625,25.4375 7.9571391,25.715773 7.5759999,26.359135 7.5625,27.03125 a 0.87737279,0.87737279 0 0 0 0,0.03125 l 0,10.3125 c 0.013554,0.945546 0.8044549,1.736446 1.75,1.75 l 10.3125,0 a 0.87737279,0.87737279 0 0 0 0.03125,0 c 0.672116,-0.0135 1.315476,-0.394643 1.59375,-1.0625 0.278276,-0.667859 0.10885,-1.398327 -0.375,-1.90625 a 0.87737279,0.87737279 0 0 0 0,-0.03125 l -1.9375,-1.96875 5,-5 L 29,34.21875 27.125,36.125 a 0.87737279,0.87737279 0 0 0 0,0.03125 c -0.483851,0.507924 -0.653273,1.238393 -0.375,1.90625 0.278273,0.667861 0.921634,1.049001 1.59375,1.0625 a 0.87737279,0.87737279 0 0 0 0.03125,0 l 10.28125,0 c 0.945545,-0.01355 1.736446,-0.804455 1.75,-1.75 l 0,-10.3125 a 0.87737279,0.87737279 0 0 0 0,-0.03125 c -0.0135,-0.672116 -0.394643,-1.315476 -1.0625,-1.59375 -0.667859,-0.278276 -1.398327,-0.10885 -1.90625,0.375 a 0.87737279,0.87737279 0 0 0 -0.03125,0 L 35.5,27.71875 30.5,22.75 a 0.87737279,0.87737279 0 0 0 -0.03125,-0.03125 0.87737279,0.87737279 0 0 0 0,-0.03125 L 35.5,17.65625 l 1.9375,1.9375 a 0.87737279,0.87737279 0 0 0 0.03125,0 c 0.507924,0.483851 1.238393,0.653273 1.90625,0.375 0.667861,-0.278273 1.049001,-0.921634 1.0625,-1.59375 a 0.87737279,0.87737279 0 0 0 0,-0.03125 l 0,-10.28125 c -0.01355,-0.9455451 -0.804454,-1.7364463 -1.75,-1.75 l -10.3125,0 a 0.87737279,0.87737279 0 0 0 -0.03125,0 C 27.671635,6.326 27.028274,6.7071425 26.75,7.375 26.471724,8.0428593 26.641149,8.7733271 27.125,9.28125 a 0.87737279,0.87737279 0 0 0 0,0.03125 l 1.90625,1.875 -5.0625,5.0625 -5.03125,-5 1.9375,-1.9375 a 0.87737279,0.87737279 0 0 0 0,-0.03125 C 21.358852,8.7733262 21.528274,8.0428573 21.25,7.375 20.971727,6.7071391 20.328365,6.3259999 19.65625,6.3125 a 0.87737279,0.87737279 0 0 0 -0.03125,0 l -10.1875,0 c -0.030978,-0.00329 -0.062674,0.00164 -0.09375,0 -0.093227,-0.00493 -0.1883174,-0.00987 -0.28125,0 z" id="5" fill="#babdb6" fill-rule="evenodd"/>
 <path d="m 9.15625,7.1875 a 0.88781603,0.88781603 0 0 0 -0.6875,0.875 l 0,10.28125 a 0.88781603,0.88781603 0 0 0 1.5,0.625 L 12.5,16.4375 18.78125,22.71875 12.5,29 9.9375,26.4375 a 0.88781603,0.88781603 0 0 0 -1.5,0.625 l 0,10.3125 a 0.88781603,0.88781603 0 0 0 0.875,0.875 l 10.3125,0 a 0.88781603,0.88781603 0 0 0 0.625,-1.5 l -2.5625,-2.59375 6.25,-6.25 6.3125,6.3125 -2.5,2.53125 a 0.88781603,0.88781603 0 0 0 0.625,1.5 l 10.28125,0 a 0.88781603,0.88781603 0 0 0 0.875,-0.875 l 0,-10.3125 a 0.88781603,0.88781603 0 0 0 -1.5,-0.625 L 35.5,28.96875 29.8125,23.28125 a 0.88781603,0.88781603 0 0 0 -0.03125,0 L 29.75,23.21875 A 0.88781603,0.88781603 0 0 0 29.625,23.125 l -0.03125,0 L 29.1875,22.6875 29.5,22.34375 29.59375,22.3125 a 0.88781603,0.88781603 0 0 0 0.0625,-0.0625 0.88781603,0.88781603 0 0 0 0.125,-0.09375 l 5.71875,-5.75 2.5625,2.5625 a 0.88781603,0.88781603 0 0 0 1.5,-0.625 l 0,-10.28125 a 0.88781603,0.88781603 0 0 0 -0.875,-0.875 l -10.3125,0 a 0.88781603,0.88781603 0 0 0 -0.625,1.5 l 2.53125,2.5 L 23.96875,17.5 17.6875,11.25 20.25,8.6875 a 0.88781603,0.88781603 0 0 0 -0.625,-1.5 l -10.28125,0 a 0.88781603,0.88781603 0 0 0 -0.1875,0 z" id="6" fill="#44274c" fill-rule="evenodd"/>
-->

 <path style="fill:white;background-color:transparent" d="m 9.3438655,8.0483807 0,10.2960653 3.1518565,-3.151856 7.522432,7.522432 -7.522432,7.522432 -3.1728689,-3.172869 0,10.296065 10.2960649,0 -3.193881,-3.193881 7.522432,-7.522432 7.564457,7.564457 -3.151857,3.151856 10.296066,0 0,-10.296065 -3.151857,3.151857 -6.324726,-6.324727 -0.02101,0.02101 -1.218718,-1.218718 1.197706,-1.197705 0.02101,0.02101 6.345739,-6.34574 3.172869,3.172869 0,-10.2960653 -10.296065,0 3.151856,3.1518573 -7.564457,7.564456 -7.522432,-7.522431 3.193882,-3.1938823 -10.2960655,0 z" id="7" fill="#ad7fa8" fill-rule="evenodd"/>
</svg>
